<svg width="18" height="18" viewBox="0 0 18 18" fill="none" xmlns="http://www.w3.org/2000/svg">
<g clip-path="url(#clip0_629_96)">
<path d="M10.2934 1.19142C9.05609 0.475713 7.47395 0.900436 6.75958 2.14008L0.347006 13.2681C-0.367334 14.5077 0.05658 16.0929 1.29387 16.8086C2.53116 17.5243 4.1133 17.0996 4.82767 15.8599L11.2403 4.7319C11.9546 3.49226 11.5307 1.90713 10.2934 1.19142Z" fill="#FFC107"/>
<path d="M10.2931 1.19143C9.71508 0.85713 9.06195 0.771771 8.45709 0.901954C8.71394 0.957361 8.96675 1.05274 9.20651 1.19143C10.4438 1.90714 10.8677 3.49227 10.1534 4.73191L3.7408 15.8599C3.36013 16.5205 2.73302 16.9496 2.04297 17.0981C3.11151 17.3285 4.25141 16.8593 4.82731 15.8599L11.2399 4.73191C11.9543 3.49227 11.5303 1.90714 10.2931 1.19143Z" fill="#FFB300"/>
<path d="M2.5842 17.1563C4.01141 17.1563 5.16839 15.9971 5.16839 14.5672C5.16839 13.1373 4.01141 11.9781 2.5842 11.9781C1.15698 11.9781 0 13.1373 0 14.5672C0 15.9971 1.15698 17.1563 2.5842 17.1563Z" fill="#4CAF50"/>
<path d="M2.04329 17.098C2.04314 17.0983 2.04307 17.0986 2.04297 17.0989C2.21755 17.1362 2.39847 17.1562 2.58416 17.1562C4.01137 17.1562 5.16836 15.997 5.16836 14.5671C5.16836 14.2494 5.11098 13.9453 5.0065 13.6641L3.74116 15.8599C3.36045 16.5205 2.73333 16.9495 2.04329 17.098Z" fill="#43A047"/>
<path d="M17.6524 13.2681L11.2398 2.14008C10.5255 0.900436 8.94332 0.475713 7.70599 1.19142C6.46871 1.90713 6.04476 3.49226 6.75913 4.7319L13.1717 15.8599C13.8861 17.0996 15.4682 17.5243 16.7055 16.8086C17.9428 16.0929 18.3667 14.5077 17.6524 13.2681Z" fill="#2196F3"/>
<path d="M17.6539 13.2681L11.2414 2.14011C10.6654 1.14072 9.52557 0.671453 8.45703 0.901972C9.14704 1.05047 9.77419 1.47952 10.1549 2.14011L16.5675 13.2681C17.2818 14.5078 16.8579 16.0929 15.6206 16.8086C15.3808 16.9473 15.128 17.0427 14.8712 17.0981C15.476 17.2283 16.1292 17.1429 16.7071 16.8086C17.9444 16.0929 18.3683 14.5077 17.6539 13.2681Z" fill="#1E88E5"/>
</g>
<defs>
<clipPath id="clip0_629_96">
<rect width="18" height="18" fill="white"/>
</clipPath>
</defs>
</svg>
