<svg width="13" height="13" viewBox="0 0 13 13" fill="none" xmlns="http://www.w3.org/2000/svg">
<g clip-path="url(#clip0_229_28)">
<mask id="path-1-inside-1_229_28" fill="white">
<path d="M9.481 0H3.51898C1.57858 0 0 1.57858 0 3.51898V9.4811C0 11.4214 1.57858 13 3.51898 13H9.4811C11.4214 13 13 11.4214 13 9.4811V3.51898C13 1.57858 11.4214 0 9.481 0V0ZM12.2379 9.4811C12.2379 11.0012 11.0012 12.2379 9.481 12.2379H3.51898C1.99881 12.2379 0.762114 11.0012 0.762114 9.4811V3.51898C0.762114 1.99881 1.99881 0.762114 3.51898 0.762114H9.4811C11.0012 0.762114 12.2379 1.99881 12.2379 3.51898V9.4811Z"/>
</mask>
<path d="M9.481 0H3.51898C1.57858 0 0 1.57858 0 3.51898V9.4811C0 11.4214 1.57858 13 3.51898 13H9.4811C11.4214 13 13 11.4214 13 9.4811V3.51898C13 1.57858 11.4214 0 9.481 0V0ZM12.2379 9.4811C12.2379 11.0012 11.0012 12.2379 9.481 12.2379H3.51898C1.99881 12.2379 0.762114 11.0012 0.762114 9.4811V3.51898C0.762114 1.99881 1.99881 0.762114 3.51898 0.762114H9.4811C11.0012 0.762114 12.2379 1.99881 12.2379 3.51898V9.4811Z" fill="white"/>
<path d="M9.481 0H34.481V-25H9.481V0ZM9.481 0H-15.519V25H9.481V0ZM9.481 -25H3.51898V25H9.481V-25ZM3.51898 -25C-12.2285 -25 -25 -12.2285 -25 3.51898H25C25 15.3857 15.3857 25 3.51898 25V-25ZM-25 3.51898V9.4811H25V3.51898H-25ZM-25 9.4811C-25 25.229 -12.2281 38 3.51898 38V-12C15.3852 -12 25 -2.38618 25 9.4811H-25ZM3.51898 38H9.4811V-12H3.51898V38ZM9.4811 38C25.2285 38 38 25.2285 38 9.4811H-12C-12 -2.38572 -2.38572 -12 9.4811 -12V38ZM38 9.4811V3.51898H-12V9.4811H38ZM38 3.51898C38 -12.2285 25.2285 -25 9.481 -25V25C-2.38572 25 -12 15.3857 -12 3.51898H38ZM34.481 0V0H-15.519V0H34.481ZM-12.7621 9.4811C-12.7621 -2.80654 -2.80537 -12.7621 9.481 -12.7621V37.2379C24.8077 37.2379 37.2379 24.8089 37.2379 9.4811H-12.7621ZM9.481 -12.7621H3.51898V37.2379H9.481V-12.7621ZM3.51898 -12.7621C15.8053 -12.7621 25.7621 -2.80654 25.7621 9.4811H-24.2379C-24.2379 24.8089 -11.8077 37.2379 3.51898 37.2379V-12.7621ZM25.7621 9.4811V3.51898H-24.2379V9.4811H25.7621ZM25.7621 3.51898C25.7621 15.8059 15.8059 25.7621 3.51898 25.7621V-24.2379C-11.8083 -24.2379 -24.2379 -11.8083 -24.2379 3.51898H25.7621ZM3.51898 25.7621H9.4811V-24.2379H3.51898V25.7621ZM9.4811 25.7621C-2.80654 25.7621 -12.7621 15.8053 -12.7621 3.51898H37.2379C37.2379 -11.8077 24.8089 -24.2379 9.4811 -24.2379V25.7621ZM-12.7621 3.51898V9.4811H37.2379V3.51898H-12.7621Z" fill="white" mask="url(#path-1-inside-1_229_28)"/>
<path d="M6.50002 2.94531C4.53998 2.94531 2.94543 4.53986 2.94543 6.49989C2.94543 8.45993 4.53998 10.0545 6.50002 10.0545C8.46005 10.0545 10.0546 8.45993 10.0546 6.49989C10.0546 4.53986 8.46005 2.94531 6.50002 2.94531ZM6.50002 9.29236C4.96032 9.29236 3.70755 8.03969 3.70755 6.49989C3.70755 4.96019 4.96032 3.70743 6.50002 3.70743C8.03982 3.70743 9.29248 4.96019 9.29248 6.49989C9.29248 8.03969 8.03982 9.29236 6.50002 9.29236Z" fill="white" stroke="white" stroke-width="25"/>
<path d="M10.1392 1.68359C9.55998 1.68359 9.08887 2.15481 9.08887 2.73393C9.08887 3.31315 9.55998 3.78437 10.1392 3.78437C10.7184 3.78437 11.1896 3.31315 11.1896 2.73393C11.1896 2.15471 10.7184 1.68359 10.1392 1.68359ZM10.1392 3.02215C9.98031 3.02215 9.85098 2.89282 9.85098 2.73393C9.85098 2.57494 9.98031 2.44571 10.1392 2.44571C10.2982 2.44571 10.4275 2.57494 10.4275 2.73393C10.4275 2.89282 10.2982 3.02215 10.1392 3.02215Z" fill="white" stroke="white" stroke-width="25"/>
</g>
<defs>
<clipPath id="clip0_229_28">
<rect width="13" height="13" fill="white"/>
</clipPath>
</defs>
</svg>
