<svg width="18" height="18" viewBox="0 0 18 18" fill="none" xmlns="http://www.w3.org/2000/svg">
<path d="M5.25254 3.14302C2.38379 3.14302 0.186523 6.87661 0.186523 10.8247C0.186523 13.2961 1.38184 14.8571 3.38574 14.8571C4.82715 14.8571 5.86426 14.1786 7.70996 10.9547C7.70996 10.9547 8.47988 9.59771 9.00723 8.66255L10.1041 6.8063C11.0357 5.36841 11.8057 4.65122 12.7197 4.65122C14.6182 4.65122 16.1369 7.44614 16.1369 10.8809C16.1369 12.1887 15.708 12.9481 14.8186 12.9481C13.9678 12.9481 13.56 12.3856 11.9428 9.78403L10.4557 11.0813C12.1396 13.9008 13.0783 14.8571 14.7799 14.8571C16.7311 14.8571 17.8174 13.2715 17.8174 10.7473C17.8174 6.60943 15.5709 3.13599 12.8393 3.13599C11.3943 3.13599 10.2623 4.22583 9.23926 5.60747L8.10371 7.27388C6.98223 8.99653 6.3002 10.0758 6.3002 10.0758C4.80605 12.4208 4.28926 12.9446 3.45605 12.9446C2.59824 12.9446 2.09199 12.1922 2.09199 10.8528C2.09199 7.98404 3.52285 5.052 5.22793 5.052L5.25254 3.14302Z" fill="url(#paint0_linear_629_90)"/>
<path d="M9.33418 6.90469L8.10371 7.28438C6.98222 9.00703 6.30019 10.0863 6.30019 10.0863C4.80605 12.4313 4.28926 12.9551 3.45605 12.9551C2.59824 12.9551 2.09199 12.2027 2.09199 10.8633C2.09199 7.99453 3.52285 5.0625 5.22793 5.0625L5.25254 3.14649C2.38379 3.14297 0.186523 6.87656 0.186523 10.8246C0.186523 13.2961 1.38184 14.857 3.38574 14.857C4.82715 14.857 5.86426 14.1785 7.70996 10.9547C7.70996 10.9547 8.47988 9.59766 9.00723 8.6625L9.33418 6.90469Z" fill="url(#paint1_linear_629_90)"/>
<path d="M10.4553 11.0847C12.1393 13.9043 13.0779 14.857 14.7795 14.857L14.8182 12.948C13.9674 12.948 13.5596 12.389 11.9424 9.78747C10.5854 7.57966 9.89277 6.47576 9.23887 5.61443C7.83262 3.82498 6.6584 3.14294 5.25215 3.14294L5.22754 5.05896C6.15215 5.05896 6.92207 5.59333 8.10332 7.28435C8.59902 7.98044 9.61504 9.6363 10.4553 11.0847Z" fill="url(#paint2_linear_629_90)"/>
<path d="M9.23555 5.61443C7.8293 3.82498 6.65508 3.14294 5.24531 3.14294C3.85664 3.14294 2.62617 4.01833 1.72266 5.36834L3.07969 6.75701C3.6457 5.73396 4.40859 5.06248 5.22773 5.06248C6.15234 5.06248 6.91523 5.58982 8.09648 7.28084L9.23555 5.61443Z" fill="url(#paint3_linear_629_90)"/>
<path d="M11.3906 12.5614C12.5473 14.2454 13.4191 14.8571 14.7797 14.8571C16.7309 14.8571 17.8172 13.2715 17.8172 10.7473L16.1367 10.8809C16.1367 12.1887 15.7078 12.9481 14.8184 12.9481C14.1328 12.9481 13.732 12.5825 12.7512 11.0708L11.3906 12.5614Z" fill="url(#paint4_linear_629_90)"/>
<defs>
<linearGradient id="paint0_linear_629_90" x1="0.186523" y1="8.99653" x2="17.8174" y2="8.99653" gradientUnits="userSpaceOnUse">
<stop stop-color="#0064E0"/>
<stop offset="0.061763" stop-color="#006AE5"/>
<stop offset="0.2183" stop-color="#007AF4"/>
<stop offset="0.8106" stop-color="#007DF6"/>
<stop offset="1" stop-color="#0080F9"/>
</linearGradient>
<linearGradient id="paint1_linear_629_90" x1="1.75048" y1="6.79658" x2="8.11141" y2="13.3742" gradientUnits="userSpaceOnUse">
<stop stop-color="#0064E0"/>
<stop offset="0.0134753" stop-color="#0065E1"/>
<stop offset="0.2894" stop-color="#0075F0"/>
<stop offset="0.5971" stop-color="#007FF9"/>
<stop offset="1" stop-color="#0082FC"/>
</linearGradient>
<linearGradient id="paint2_linear_629_90" x1="3.87578" y1="2.18726" x2="14.6283" y2="13.8075" gradientUnits="userSpaceOnUse">
<stop stop-color="#0082FB"/>
<stop offset="0.0216721" stop-color="#017CF5"/>
<stop offset="0.0904785" stop-color="#0471EA"/>
<stop offset="0.1872" stop-color="#066AE3"/>
<stop offset="0.4561" stop-color="#0668E1"/>
<stop offset="0.7462" stop-color="#056AE3"/>
<stop offset="0.8847" stop-color="#0472EB"/>
<stop offset="0.9742" stop-color="#017CF5"/>
<stop offset="1" stop-color="#0082FB"/>
</linearGradient>
<linearGradient id="paint3_linear_629_90" x1="1.72266" y1="5.21189" x2="9.23555" y2="5.21189" gradientUnits="userSpaceOnUse">
<stop stop-color="#0064E0"/>
<stop offset="0.4218" stop-color="#0069E4"/>
<stop offset="0.4332" stop-color="#0069E4"/>
<stop offset="1" stop-color="#0668E1"/>
</linearGradient>
<linearGradient id="paint4_linear_629_90" x1="11.3912" y1="12.8022" x2="17.8172" y2="12.8022" gradientUnits="userSpaceOnUse">
<stop stop-color="#066BE3"/>
<stop offset="0.3087" stop-color="#0470E9"/>
<stop offset="0.559" stop-color="#0279F2"/>
<stop offset="1" stop-color="#0080F9"/>
</linearGradient>
</defs>
</svg>
