<svg width="18" height="18" viewBox="0 0 18 18" fill="none" xmlns="http://www.w3.org/2000/svg">
<path d="M8.71875 12.9374C8.71875 10.6112 10.6111 8.7187 12.9375 8.7187C13.5413 8.7187 14.1145 8.84844 14.6343 9.07788V5.3437C14.6343 5.24317 14.5808 5.15034 14.4937 5.10007L8.16092 1.44382C8.07385 1.39356 7.96674 1.39356 7.87967 1.44382L1.54688 5.10007C1.45981 5.15034 1.40625 5.24317 1.40625 5.3437V12.6562C1.40625 12.7567 1.45981 12.8496 1.54688 12.8998L7.87967 16.5561C7.9232 16.5812 7.97168 16.5937 8.02029 16.5937C8.06891 16.5937 8.11739 16.5812 8.16092 16.5561L9.71768 15.6573C9.09574 14.9221 8.71875 13.9735 8.71875 12.9374Z" fill="#DD993E"/>
<path d="M7.19683 14.4516C7.14918 14.4516 7.1007 14.4395 7.05648 14.414L5.09968 13.284C4.96509 13.2063 4.91909 13.0342 4.99668 12.8998C5.07427 12.7652 5.24621 12.7191 5.38093 12.7968L7.33773 13.9267C7.47231 14.0045 7.51832 14.1765 7.44073 14.311C7.38854 14.4012 7.29406 14.4516 7.19683 14.4516Z" fill="#5D4037"/>
<path d="M7.19683 13.3267C7.14918 13.3267 7.1007 13.3146 7.05648 13.2891L5.09968 12.1591C4.96509 12.0814 4.91909 11.9093 4.99668 11.7749C5.07427 11.6404 5.24621 11.5939 5.38093 11.6719L7.33773 12.8018C7.47231 12.8796 7.51832 13.0516 7.44073 13.1861C7.38854 13.2763 7.29406 13.3267 7.19683 13.3267Z" fill="#5D4037"/>
<path d="M8.71797 12.9375C8.71797 10.6113 10.6104 8.71875 12.9367 8.71875C13.5405 8.71875 14.1138 8.84849 14.6336 9.07793V5.34375C14.6336 5.30003 14.6218 5.25854 14.6032 5.22058L8.02075 9.02192H8.01953V16.5937C8.06815 16.5937 8.11661 16.5813 8.16014 16.5561L9.7169 15.6573C9.09496 14.9222 8.71797 13.9736 8.71797 12.9375Z" fill="#B5772C"/>
<path d="M8.0219 9.02187L14.6043 5.22051C14.5801 5.17123 14.5433 5.12847 14.4941 5.10007L8.16129 1.44382C8.07422 1.39356 7.9671 1.39356 7.88004 1.44382L1.54724 5.10007C1.49842 5.12826 1.46172 5.17056 1.4375 5.21936L8.0219 9.02187Z" fill="#DD9A52"/>
<path d="M10.2398 2.64453L3.76758 6.38218C3.68051 6.43245 3.62695 6.52528 3.62695 6.6258V8.89009C3.62695 8.99061 3.68051 9.08345 3.76758 9.13371L5.27477 10.0041C5.36175 10.0543 5.46903 10.0543 5.55602 10.0041C5.64308 9.95384 5.69664 9.861 5.69664 9.76048V7.65825L12.3095 3.83945L10.2398 2.64453Z" fill="#B71C1C"/>
<path d="M11.7207 3.49911L10.2405 2.64453L3.7682 6.38218C3.71918 6.41049 3.68239 6.45304 3.6582 6.50211L5.69727 7.67967V7.65825L12.3101 3.83945L11.7207 3.49911Z" fill="#D32F2F"/>
<path d="M12.9375 16.5938C14.9568 16.5938 16.5938 14.9568 16.5938 12.9375C16.5938 10.9182 14.9568 9.28125 12.9375 9.28125C10.9182 9.28125 9.28125 10.9182 9.28125 12.9375C9.28125 14.9568 10.9182 16.5938 12.9375 16.5938Z" fill="#558B2F"/>
<path d="M12.5987 14.7495C12.5427 14.7495 12.4864 14.7329 12.4372 14.6983L10.7407 13.505C10.6135 13.4156 10.583 13.2403 10.6723 13.1132C10.7618 12.9865 10.937 12.9556 11.0642 13.045L12.5347 14.0792L14.6078 11.2379C14.699 11.1124 14.8745 11.0848 15.0009 11.1765C15.1261 11.2679 15.1539 11.4439 15.0621 11.5694L12.8261 14.634C12.7712 14.7094 12.6855 14.7495 12.5987 14.7495Z" fill="#B2FF59"/>
</svg>
