<svg width="30" height="30" viewBox="0 0 30 30" fill="none" xmlns="http://www.w3.org/2000/svg">
<path d="M25.3125 1.40625C24.5708 1.40625 23.8458 1.62618 23.2291 2.03824C22.6124 2.45029 22.1318 3.03596 21.848 3.72119C21.5641 4.40641 21.4899 5.16041 21.6346 5.88784C21.7793 6.61527 22.1364 7.28345 22.6609 7.8079C23.1853 8.33235 23.8535 8.6895 24.5809 8.83419C25.3083 8.97889 26.0623 8.90463 26.7476 8.6208C27.4328 8.33697 28.0185 7.85632 28.4305 7.23964C28.8426 6.62295 29.0625 5.89793 29.0625 5.15625C29.0625 4.16169 28.6674 3.20786 27.9642 2.5046C27.2609 1.80134 26.3071 1.40625 25.3125 1.40625ZM25.3125 7.96875C24.7562 7.96875 24.2125 7.8038 23.75 7.49476C23.2874 7.18572 22.927 6.74646 22.7141 6.23255C22.5012 5.71863 22.4455 5.15313 22.554 4.60756C22.6626 4.06199 22.9304 3.56085 23.3238 3.16751C23.7171 2.77418 24.2182 2.50631 24.7638 2.39779C25.3094 2.28927 25.8749 2.34497 26.3888 2.55784C26.9027 2.77071 27.342 3.1312 27.651 3.59371C27.9601 4.05622 28.125 4.59999 28.125 5.15625C28.125 5.90217 27.8287 6.61754 27.3012 7.14499C26.7738 7.67243 26.0584 7.96875 25.3125 7.96875Z" fill="white"/>
<path fill-rule="evenodd" clip-rule="evenodd" d="M24 4.19969C24 4.09277 24.0867 4.0061 24.1936 4.0061H25.7701C25.877 4.0061 25.9637 4.09277 25.9637 4.19969C25.9637 4.3066 25.877 4.39327 25.7701 4.39327H24.1936C24.0867 4.39327 24 4.3066 24 4.19969Z" fill="white"/>
<path fill-rule="evenodd" clip-rule="evenodd" d="M24 4.93699C24 4.83008 24.0867 4.74341 24.1936 4.74341H25.7791C25.886 4.74341 25.9727 4.83008 25.9727 4.93699C25.9727 5.0439 25.886 5.13057 25.7791 5.13057H24.1936C24.0867 5.13057 24 5.0439 24 4.93699Z" fill="white"/>
<path fill-rule="evenodd" clip-rule="evenodd" d="M25.1526 4.87262C25.0868 4.61088 24.7571 4.34868 24.3885 4.39184C24.2824 4.40426 24.1862 4.32827 24.1738 4.22208C24.1613 4.1159 24.2373 4.01974 24.3435 4.00729C24.8999 3.94215 25.4136 4.32274 25.5281 4.77821C25.5888 5.01967 25.5355 5.27972 25.3269 5.48643C25.1695 5.64251 24.9347 5.7575 24.6211 5.82376C24.7894 5.98359 24.982 6.15374 25.1516 6.29953C25.2707 6.40195 25.3773 6.49123 25.454 6.55489C25.4923 6.58672 25.5231 6.6121 25.5443 6.62949C25.555 6.63819 25.5631 6.64488 25.5687 6.64938C25.5714 6.65163 25.5735 6.65333 25.5749 6.65445L25.5768 6.656L25.5769 6.65607C25.6599 6.72344 25.6726 6.84536 25.6053 6.92838C25.5379 7.0114 25.416 7.0241 25.333 6.95673L25.4549 6.80642C25.333 6.95674 25.333 6.95673 25.333 6.95673L25.3328 6.95659L25.3306 6.95482C25.3291 6.9536 25.3269 6.95179 25.324 6.94945C25.3182 6.94475 25.3098 6.93784 25.2989 6.92891C25.2771 6.91107 25.2457 6.88518 25.2067 6.85281C25.1287 6.78808 25.0204 6.69732 24.8992 6.59313C24.6582 6.38598 24.3608 6.12129 24.1494 5.90184C23.9904 5.7368 24.1218 5.50215 24.3047 5.4821C24.7141 5.4372 24.9408 5.32404 25.0544 5.21147C25.1598 5.10695 25.1821 4.98977 25.1526 4.87262Z" fill="white"/>
<path d="M1.87356 18.75V27.9703L1.08137 28.725C0.998223 28.8049 0.947468 28.9127 0.93882 29.0278C0.930172 29.1428 0.964237 29.257 1.0345 29.3484C1.07817 29.4052 1.13425 29.4511 1.19844 29.4828C1.26263 29.5145 1.33322 29.5311 1.40481 29.5312C1.49257 29.5315 1.57865 29.5072 1.65325 29.4609L20.2017 17.7703L22.2361 19.5703C22.2991 19.6258 22.3758 19.6633 22.4583 19.6789C22.5407 19.6946 22.6259 19.6879 22.7048 19.6594C22.7842 19.6308 22.8545 19.5813 22.9081 19.5161C22.9617 19.451 22.9968 19.3725 23.0095 19.2891L24.3736 10.1484C24.3851 10.0722 24.3776 9.99425 24.3518 9.92156C24.326 9.84888 24.2827 9.78368 24.2257 9.73175C24.1686 9.67982 24.0997 9.64277 24.0249 9.62387C23.9501 9.60498 23.8718 9.60483 23.797 9.62344L15.0829 11.7188C15.0009 11.7386 14.9257 11.7803 14.8654 11.8394C14.805 11.8985 14.7618 11.9727 14.7402 12.0544C14.7186 12.136 14.7194 12.222 14.7426 12.3031C14.7658 12.3843 14.8105 12.4577 14.872 12.5156L16.5032 14.0625L14.0611 16.4062V1.875C14.0611 1.75068 14.0117 1.63145 13.9238 1.54354C13.8359 1.45564 13.7166 1.40625 13.5923 1.40625H10.7798C10.6555 1.40625 10.5363 1.45564 10.4484 1.54354C10.3604 1.63145 10.3111 1.75068 10.3111 1.875V7.96875H7.96731C7.84299 7.96875 7.72376 8.01814 7.63585 8.10604C7.54795 8.19395 7.49856 8.31318 7.49856 8.4375V13.5938H5.15481C5.03049 13.5938 4.91126 13.6431 4.82335 13.731C4.73545 13.819 4.68606 13.9382 4.68606 14.0625V18.2812H2.34231C2.21799 18.2812 2.09876 18.3306 2.01086 18.4185C1.92295 18.5065 1.87356 18.6257 1.87356 18.75ZM17.5064 13.7203L16.1423 12.4406L23.3376 10.6969L22.2079 18.2812L20.5579 16.8234C20.482 16.7556 20.386 16.7143 20.2845 16.7058C20.183 16.6974 20.0816 16.7222 19.9954 16.7766L5.15481 26.1469L17.5064 14.4C17.5521 14.3564 17.5885 14.3041 17.6135 14.2461C17.6384 14.1881 17.6514 14.1256 17.6517 14.0625C17.6521 13.9986 17.6394 13.9352 17.6144 13.8764C17.5894 13.8175 17.5526 13.7644 17.5064 13.7203ZM11.2486 2.34375H13.1236V17.2734L11.2486 19.0594V2.34375ZM8.43606 8.90625H10.3111V19.95L8.43606 21.7313V8.90625ZM5.62356 14.5312H7.49856V22.6219L5.62356 24.4031V14.5312ZM4.68606 19.2188V25.3125L2.81106 27.0938V19.2188H4.68606Z" fill="white"/>
</svg>
