<svg width="26" height="32" viewBox="0 0 26 32" fill="none" xmlns="http://www.w3.org/2000/svg">
<path fill-rule="evenodd" clip-rule="evenodd" d="M3.56735 0.884774C3.97618 0.689469 4.46586 0.862523 4.66118 1.2713L7.45953 7.1283C7.9193 8.09065 7.93071 9.21932 7.44266 10.1907C7.005 11.0619 6.54352 11.9399 6.07914 12.8231C5.32102 14.2654 4.55547 15.7219 3.87391 17.1861C2.78032 19.536 1.98821 21.7394 1.87969 23.633C1.77453 25.4695 2.30828 26.965 3.86188 28.0779C5.48758 29.2425 8.32594 30.0597 13.0046 30.1799C13.4575 30.1915 13.8152 30.5681 13.8036 31.021C13.792 31.4739 13.4153 31.8316 12.9624 31.82C8.17555 31.697 4.93461 30.8646 2.90649 29.4116C0.806089 27.9071 0.111269 25.8172 0.241761 23.5392C0.36898 21.3184 1.2768 18.8782 2.38649 16.4939C3.07977 15.0043 3.88516 13.4711 4.66 11.9961C5.11961 11.1212 5.56836 10.2669 5.97664 9.45424C6.22789 8.95424 6.2293 8.35901 5.97914 7.83557L3.18086 1.97859C2.98555 1.5698 3.1586 1.08009 3.56735 0.884774Z" fill="white"/>
<path fill-rule="evenodd" clip-rule="evenodd" d="M22.4915 0.884962C22.0828 0.689438 21.593 0.862235 21.3975 1.27091L18.5959 7.12659C18.135 8.08987 18.1236 9.2201 18.6129 10.1924C19.0509 11.0632 19.5129 11.9407 19.9775 12.8236C20.7369 14.2662 21.5037 15.723 22.1862 17.1875C23.2812 19.5372 24.0743 21.7403 24.1827 23.6336C24.2879 25.4694 23.7535 26.9647 22.1975 28.0778C20.5692 29.2425 17.7265 30.0597 13.0414 30.1799C12.5886 30.1915 12.2308 30.5681 12.2425 31.021C12.2541 31.4739 12.6307 31.8316 13.0836 31.82C17.8766 31.697 21.1214 30.8646 23.152 29.4121C25.255 27.9078 25.9512 25.8181 25.8207 23.5398C25.6934 21.3189 24.7844 18.8787 23.6733 16.4946C22.979 15.0046 22.1722 13.471 21.3962 11.9956C20.9362 11.1213 20.4871 10.2674 20.0784 9.4551C19.8266 8.95463 19.8252 8.35862 20.0759 7.83463L22.8774 1.97898C23.0729 1.5703 22.9001 1.08049 22.4915 0.884962Z" fill="white"/>
<path fill-rule="evenodd" clip-rule="evenodd" d="M3.4914 1.05945C3.84679 0.77854 4.36273 0.838954 4.64359 1.1944C5.71171 2.5459 6.84859 2.90116 7.89913 2.84443C9.00976 2.78446 10.117 2.2555 11.0175 1.65868C12.3273 0.790571 14.0898 0.587938 15.5326 1.43692C16.5087 2.01127 17.5098 2.44933 18.4969 2.49586C19.4332 2.54 20.4433 2.2364 21.4924 1.13679C21.8051 0.808993 22.3244 0.796775 22.6522 1.1095C22.98 1.42223 22.9923 1.94148 22.6795 2.26928C21.3237 3.69043 19.8609 4.20265 18.4197 4.13468C17.0292 4.06914 15.748 3.46723 14.7006 2.85092C13.8841 2.37048 12.7991 2.44617 11.9239 3.02623C10.9191 3.69218 9.52101 4.39984 7.98757 4.48265C6.39421 4.56875 4.74835 3.97289 3.35648 2.21167C3.07554 1.85624 3.13593 1.34037 3.4914 1.05945Z" fill="white"/>
<path fill-rule="evenodd" clip-rule="evenodd" d="M6.22656 8.69531C6.22656 8.24227 6.59383 7.875 7.04688 7.875H18.9219C19.3749 7.875 19.7422 8.24227 19.7422 8.69531C19.7422 9.14836 19.3749 9.51562 18.9219 9.51562H7.04688C6.59383 9.51562 6.22656 9.14836 6.22656 8.69531Z" fill="white"/>
<path fill-rule="evenodd" clip-rule="evenodd" d="M8.66406 15.1406C8.66406 14.6876 9.03133 14.3203 9.48438 14.3203H16.1648C16.6179 14.3203 16.9852 14.6876 16.9852 15.1406C16.9852 15.5937 16.6179 15.9609 16.1648 15.9609H9.48438C9.03133 15.9609 8.66406 15.5937 8.66406 15.1406Z" fill="white"/>
<path fill-rule="evenodd" clip-rule="evenodd" d="M8.66406 18.2656C8.66406 17.8126 9.03133 17.4453 9.48438 17.4453H16.2031C16.6562 17.4453 17.0234 17.8126 17.0234 18.2656C17.0234 18.7187 16.6562 19.0859 16.2031 19.0859H9.48438C9.03133 19.0859 8.66406 18.7187 8.66406 18.2656Z" fill="white"/>
<path fill-rule="evenodd" clip-rule="evenodd" d="M13.5414 17.9927C13.2625 16.8836 11.8656 15.7725 10.3036 15.9553C9.8537 16.008 9.44619 15.686 9.39354 15.236C9.3408 14.7861 9.66291 14.3786 10.1128 14.3258C12.4706 14.0498 14.6472 15.6625 15.1325 17.5926C15.3898 18.6158 15.1639 19.7178 14.2802 20.5937C13.6129 21.2551 12.6181 21.7424 11.2893 22.0232C12.0024 22.7004 12.8185 23.4214 13.5371 24.0393C14.0421 24.4732 14.4934 24.8516 14.8184 25.1214C14.9808 25.2562 15.1116 25.3638 15.2014 25.4375C15.2464 25.4743 15.2811 25.5027 15.3045 25.5218C15.3162 25.5313 15.325 25.5385 15.3309 25.5432L15.339 25.5498L15.3393 25.5501C15.6912 25.8356 15.745 26.3522 15.4596 26.704C15.1742 27.0558 14.6576 27.1096 14.3057 26.8242L14.8226 26.1872C14.3057 26.8242 14.3057 26.8242 14.3057 26.8242L14.3049 26.8236L14.2957 26.8161C14.2894 26.8109 14.28 26.8032 14.2678 26.7933C14.2433 26.7734 14.2074 26.7441 14.1614 26.7063C14.0692 26.6307 13.9358 26.521 13.7705 26.3838C13.4401 26.1095 12.9814 25.7249 12.4677 25.2834C11.4465 24.4056 10.1863 23.2839 9.29034 22.354C8.61659 21.6546 9.1733 20.6603 9.94823 20.5753C11.6831 20.3851 12.644 19.9056 13.1252 19.4286C13.572 18.9857 13.6663 18.4891 13.5414 17.9927Z" fill="white"/>
</svg>
