<svg width="18" height="18" viewBox="0 0 18 18" fill="none" xmlns="http://www.w3.org/2000/svg">
<g clip-path="url(#clip0_629_104)">
<path d="M9.01555 17.7875C8.98445 17.7875 8.92229 17.7875 8.8912 17.7875C8.8601 17.7875 8.829 17.7875 8.79794 17.7875C7.74094 17.7875 7.18138 17.4767 6.52853 17.0103C6.06222 16.6995 5.62697 16.3886 5.12957 16.2953C4.84977 16.2642 4.60106 16.2331 4.35236 16.2331C3.91711 16.2331 3.57516 16.2953 3.32646 16.3575C3.17101 16.3886 3.04666 16.4197 2.9534 16.4197C2.86015 16.4197 2.7358 16.3886 2.6736 16.2331C2.64251 16.0777 2.61141 15.9533 2.58035 15.829C2.51816 15.487 2.456 15.2694 2.30055 15.2383C0.590659 14.9896 0.124351 14.6166 0 14.3679C0 14.3057 0 14.2746 0 14.2435C0 14.1503 0.0621932 14.057 0.155448 14.057C2.76686 13.6217 3.94821 10.9482 3.97927 10.8549C4.13472 10.544 4.16582 10.2642 4.07253 10.0155C3.88598 9.5803 3.29532 9.39379 2.92227 9.26944C2.82902 9.23834 2.73573 9.20725 2.67357 9.17619C1.89636 8.86529 1.83421 8.55443 1.86527 8.39898C1.92746 8.11918 2.26942 7.93267 2.58028 7.93267C2.67353 7.93267 2.73573 7.93267 2.79788 7.96377C3.13984 8.11922 3.45074 8.21247 3.73054 8.21247C4.10359 8.21247 4.25904 8.05703 4.29013 8.02593C4.29013 7.83938 4.25904 7.65288 4.25904 7.46633C4.16578 6.22282 4.07249 4.69947 4.47664 3.82902C5.62694 1.21761 8.11399 1 8.8601 1C8.8912 1 9.171 1 9.171 1H9.20209C9.9482 1 12.4353 1.21761 13.6166 3.82902C14.0208 4.69947 13.8964 6.25388 13.8342 7.46633V7.52852C13.8342 7.71507 13.8031 7.87048 13.8031 8.02593C13.8342 8.05703 13.9586 8.18138 14.3005 8.21247C14.5492 8.21247 14.8601 8.11922 15.171 7.96377C15.2642 7.93267 15.3575 7.90158 15.4508 7.90158C15.5751 7.90158 15.6684 7.93267 15.7617 7.96377C16.0104 8.05703 16.1969 8.24357 16.1969 8.43008C16.1969 8.61662 16.0726 8.89639 15.3886 9.14509C15.3264 9.17619 15.2332 9.20728 15.1399 9.23834C14.7669 9.3627 14.1762 9.54924 13.9897 9.98445C13.8964 10.2021 13.9275 10.4819 14.0829 10.8238C14.1451 10.9482 15.2332 13.6217 17.8446 14.057C17.9378 14.0881 18 14.1502 18 14.2435C18 14.2746 18 14.3057 17.9689 14.3679C17.8757 14.6166 17.4404 14.9585 15.7306 15.2383C15.6062 15.2694 15.544 15.4249 15.4508 15.829C15.4197 15.9533 15.3886 16.1088 15.3575 16.2331C15.3265 16.3575 15.2332 16.4197 15.1088 16.4197H15.0777C14.9845 16.4197 14.8601 16.3886 14.7047 16.3575C14.4249 16.2953 14.0829 16.2642 13.6788 16.2642C13.4301 16.2642 13.1814 16.2953 12.9327 16.3264C12.4353 16.4197 12 16.7306 11.5337 17.0414C10.9119 17.5078 10.0726 17.7875 9.01555 17.7875Z" fill="#EFEA00"/>
</g>
<defs>
<clipPath id="clip0_629_104">
<rect width="18" height="18" fill="white"/>
</clipPath>
</defs>
</svg>
