<svg width="18" height="18" viewBox="0 0 18 18" fill="none" xmlns="http://www.w3.org/2000/svg">
<path d="M15.9012 13.6552H17.7012V10.3552L15.0012 6.15515H11.7012V13.6552H12.9012" fill="#FDB62F"/>
<path d="M2.70079 13.6552H0.300781V4.05518H11.7008V13.6552H5.70078" fill="#FDB62F"/>
<path d="M2.10078 12.1552H0.300781V12.7552H2.10078V12.1552Z" fill="#F46B27"/>
<path d="M11.7008 12.1552H6.30078V12.7552H11.7008V12.1552Z" fill="#F46B27"/>
<path d="M17.7 12.1552H16.5V12.7552H17.7V12.1552Z" fill="#DBDBDB"/>
<path d="M11.6992 4.95508H1.19922V5.55509H11.6992V4.95508Z" fill="#F46B27"/>
<path d="M4.19923 15.1552C5.02766 15.1552 5.69924 14.4836 5.69924 13.6552C5.69924 12.8267 5.02766 12.1552 4.19923 12.1552C3.3708 12.1552 2.69922 12.8267 2.69922 13.6552C2.69922 14.4836 3.3708 15.1552 4.19923 15.1552Z" fill="#126099"/>
<path d="M14.3984 15.1552C15.2269 15.1552 15.8985 14.4836 15.8985 13.6552C15.8985 12.8267 15.2269 12.1552 14.3984 12.1552C13.57 12.1552 12.8984 12.8267 12.8984 13.6552C12.8984 14.4836 13.57 15.1552 14.3984 15.1552Z" fill="#126099"/>
<path d="M4.5004 13.3552H3.90039V13.9552H4.5004V13.3552Z" fill="#DBDBDB"/>
<path d="M14.6996 13.3552H14.0996V13.9552H14.6996V13.3552Z" fill="#DBDBDB"/>
<path d="M5.39923 2.55518H1.19922V3.15519H5.39923V2.55518Z" fill="#DBDBDB"/>
<path d="M0.600012 2.55518H0V3.15519H0.600012V2.55518Z" fill="#DBDBDB"/>
<path d="M15.7714 7.3551H12.9004V10.0551H17.5084L15.7714 7.3551Z" fill="#87CED9"/>
<path d="M12.2992 6.15515H11.6992V13.6551H12.2992V6.15515Z" fill="#FFA83D"/>
<path d="M17.5084 10.0552L15.8794 7.52014C15.0787 8.47024 14.0554 9.20704 12.9004 9.66513V10.0551H17.5084V10.0552Z" fill="#6CBBC7"/>
<path d="M15.252 5.9931C15.1968 5.90729 15.102 5.8554 15 5.85512H12V4.05512C12 3.88953 11.8656 3.75513 11.7 3.75513H0.299988C0.134402 3.75513 0 3.88953 0 4.05512V13.6551C0 13.8207 0.134402 13.9551 0.299988 13.9551H2.42698C2.59857 14.9343 3.53127 15.5889 4.51048 15.4176C5.25716 15.2868 5.84216 14.7021 5.97298 13.9551H12.627C12.7986 14.9343 13.7313 15.5889 14.7105 15.4176C15.4571 15.2868 16.0421 14.7021 16.173 13.9551H17.7C17.8656 13.9551 18 13.8207 18 13.6551V10.3551C18 10.2975 17.9832 10.2414 17.952 10.1931L15.252 5.9931ZM15.6 7.65512L16.959 9.7551H13.2V7.65512H15.6ZM4.20001 14.8551C3.53732 14.8551 3.00002 14.3178 3.00002 13.6551C3.00002 12.9924 3.53732 12.4551 4.20001 12.4551C4.86271 12.4551 5.4 12.9924 5.4 13.6551C5.4 14.3178 4.86271 14.8551 4.20001 14.8551ZM4.20001 11.8551C3.3222 11.856 2.5734 12.4896 2.42701 13.3551H0.600012V12.7551H2.10002V12.1551H0.600012V4.3551H11.4V4.95512H1.19999V5.55513H11.4V12.1551H6.3V12.7551H11.4V13.3551H5.97301C5.82659 12.4899 5.07779 11.856 4.20001 11.8551ZM14.4 14.8551C13.7373 14.8551 13.2 14.3178 13.2 13.6551C13.2 12.9924 13.7373 12.4551 14.4 12.4551C15.0627 12.4551 15.6 12.9924 15.6 13.6551C15.6 14.3178 15.0627 14.8551 14.4 14.8551ZM16.173 13.3551C16.0014 12.3759 15.0687 11.7213 14.0895 11.8926C13.3428 12.0234 12.7578 12.6081 12.627 13.3551H12V6.45513H14.835L15.222 7.05514H12.9C12.7344 7.05514 12.6 7.18954 12.6 7.35513V10.0551C12.6 10.2207 12.7344 10.3551 12.9 10.3551H17.343L17.4 10.4421V12.1551H16.5V12.7551H17.4V13.3551H16.173V13.3551Z" fill="black"/>
<path d="M4.5004 13.3551H3.90039V13.9551H4.5004V13.3551Z" fill="black"/>
<path d="M14.6996 13.3551H14.0996V13.9551H14.6996V13.3551Z" fill="black"/>
<path d="M5.39923 2.55518H1.19922V3.15519H5.39923V2.55518Z" fill="black"/>
<path d="M0.600012 2.55518H0V3.15519H0.600012V2.55518Z" fill="black"/>
</svg>
